# xmcd CD database file
# Copyright (C) 1993-1996 Ti Kan
#
# Track frame offsets:
# 150
# 12367
# 24175
# 35395
# 44782
# 55825
# 65077
# 77242
# 86825
# 99420
# 110550
# 121860
#
# Disc length: 1773 seconds
#
# Revision: 0
# Processed by: cddbd v1.4b41PL1 Copyright (c) Steve Scherf et al.
# Submitted via: inCDius 1.1b5
#
DISCID=9b06eb0c
DTITLE=Del Reeves - Del Reeves His Greatest Hits
DYEAR=1900
DGENRE=
TTITLE0=Girl On The Billboard
TTITLE1=The Belles Of Southern Bell
TTITLE2=Women Do Funny Things To Me
TTITLE3=A Dime At A Time
TTITLE4=Looking At The World Through A Windshield
TTITLE5=Good Time Charlie's
TTITLE6=Be Glad
TTITLE7=There Wouldn't Be A Lonely Heart In Town
TTITLE8=A Lover's Question
TTITLE9=The Philadelphia Fillies
TTITLE10=Crying In The Rain
TTITLE11=But I Do
EXTD=
EXTT0=
EXTT1=
EXTT2=
EXTT3=
EXTT4=
EXTT5=
EXTT6=
EXTT7=
EXTT8=
EXTT9=
EXTT10=With Penny DeHaven
EXTT11=
PLAYORDER=
